<svg xmlns="http://www.w3.org/2000/svg" viewBox="0 0 780 380" fill="none">
  <defs>
    <linearGradient id="g_bat_c" x1="0" y1="0" x2="1" y2="0">
      <stop offset="0%" stop-color="#3fb950" stop-opacity="0.6"/>
      <stop offset="100%" stop-color="#39d2c0" stop-opacity="0.95"/>
    </linearGradient>
    <linearGradient id="g_bat_d" x1="0" y1="0" x2="1" y2="0">
      <stop offset="0%" stop-color="#f85149" stop-opacity="0.4"/>
      <stop offset="100%" stop-color="#f0883e" stop-opacity="0.6"/>
    </linearGradient></defs>
  <rect width="780" height="380" rx="12" fill="#0d1117"/>
  <text x="390" y="32" text-anchor="middle" fill="#c9d1d9" font-family="Inter,system-ui,sans-serif" font-size="17" font-weight="600">Continuous Inference Battery Life -- iPhone 16 Pro</text>
  <text x="390" y="50" text-anchor="middle" fill="#8b949e" font-family="Inter,system-ui,sans-serif" font-size="11">4,685 mAh battery. SIREN uses ANE (weight-in-SRAM). Dense uses GPU/CPU.</text>
  <text x="128" y="96" text-anchor="end" fill="#c9d1d9" font-family="Inter,system-ui,sans-serif" font-size="12">Tiny (50M)</text>
  <rect x="140" y="70" width="520.0" height="22" rx="4" fill="url(#g_bat_c)"/>
  <text x="668.0" y="86" fill="#3fb950" font-family="Inter,system-ui,sans-serif" font-size="12" font-weight="600">200.0h SIREN</text>
  <rect x="140" y="95" width="520.0" height="22" rx="4" fill="url(#g_bat_d)"/>
  <text x="668.0" y="111" fill="#8b949e" font-family="Inter,system-ui,sans-serif" font-size="11">200.0h Dense</text>
  <text x="128" y="162" text-anchor="end" fill="#c9d1d9" font-family="Inter,system-ui,sans-serif" font-size="12">Small (200M)</text>
  <rect x="140" y="136" width="520.0" height="22" rx="4" fill="url(#g_bat_c)"/>
  <text x="668.0" y="152" fill="#3fb950" font-family="Inter,system-ui,sans-serif" font-size="12" font-weight="600">200.0h SIREN</text>
  <rect x="140" y="161" width="520.0" height="22" rx="4" fill="url(#g_bat_d)"/>
  <text x="668.0" y="177" fill="#8b949e" font-family="Inter,system-ui,sans-serif" font-size="11">200.0h Dense</text>
  <text x="128" y="228" text-anchor="end" fill="#c9d1d9" font-family="Inter,system-ui,sans-serif" font-size="12">Base (750M)</text>
  <rect x="140" y="202" width="520.0" height="22" rx="4" fill="url(#g_bat_c)"/>
  <text x="668.0" y="218" fill="#3fb950" font-family="Inter,system-ui,sans-serif" font-size="12" font-weight="600">200.0h SIREN</text>
  <rect x="140" y="227" width="520.0" height="22" rx="4" fill="url(#g_bat_d)"/>
  <text x="668.0" y="243" fill="#8b949e" font-family="Inter,system-ui,sans-serif" font-size="11">200.0h Dense</text>
  <text x="128" y="294" text-anchor="end" fill="#c9d1d9" font-family="Inter,system-ui,sans-serif" font-size="12">Medium (1.5B)</text>
  <rect x="140" y="268" width="520.0" height="22" rx="4" fill="url(#g_bat_c)"/>
  <text x="668.0" y="284" fill="#3fb950" font-family="Inter,system-ui,sans-serif" font-size="12" font-weight="600">200.0h SIREN</text>
  <rect x="140" y="293" width="520.0" height="22" rx="4" fill="url(#g_bat_d)"/>
  <text x="668.0" y="309" fill="#8b949e" font-family="Inter,system-ui,sans-serif" font-size="11">200.0h Dense</text>
  <text x="128" y="360" text-anchor="end" fill="#c9d1d9" font-family="Inter,system-ui,sans-serif" font-size="12">Large (7B)</text>
  <rect x="140" y="334" width="520.0" height="22" rx="4" fill="url(#g_bat_c)"/>
  <text x="668.0" y="350" fill="#3fb950" font-family="Inter,system-ui,sans-serif" font-size="12" font-weight="600">200.0h SIREN</text>
  <rect x="140" y="359" width="520.0" height="22" rx="4" fill="url(#g_bat_d)"/>
  <text x="668.0" y="375" fill="#8b949e" font-family="Inter,system-ui,sans-serif" font-size="11">200.0h Dense</text>
</svg>